M48
METRIC,000.000
T94C0.889
T93C1.143
T92C1.016
T91C0.711
T90C0.965
T89C0.762
%
T91
X012829Y094099
X019463Y095509
X022003Y095509
T89
X005978Y107814
X005978Y105274
X005978Y102734
X027364Y099691
X029904Y099691
X032444Y099691
X040615Y120840
X040615Y118300
T94
X022860Y113792
T90
X010985Y121688
X010985Y111528
X012829Y104259
X019655Y119076
X022195Y119076
X029575Y111812
X029575Y109272
X033621Y089741
X039599Y111864
X039599Y106784
X040676Y095525
X040676Y092985
X043781Y089741
X046754Y124199
X046754Y114039
X047506Y110072
X047506Y107532
X050506Y102716
X050506Y097636
T92
X015240Y113792
X015240Y111252
X015240Y108712
X015240Y106172
X022860Y111252
X022860Y108712
T93
X022860Y106172
M30
