G04 start of page 3 for group 1 idx 1 *
G04 Title: (unknown), ground *
G04 Creator: pcb-gtk 1.99z *
G04 CreationDate: Sat Jun  4 21:01:05 2016 UTC *
G04 For: khazakar *
G04 Format: Gerber/RS-274X *
G04 PCB-Dimensions (mm): 152.40 127.00 *
G04 PCB-Coordinate-Origin: lower left *
%MOMM*%
%FSLAX43Y43*%
%LNGROUP1*%
%ADD32C,0.889*%
%ADD31C,1.143*%
%ADD30C,1.016*%
%ADD29C,0.711*%
%ADD28C,2.000*%
%ADD27C,0.965*%
%ADD26C,0.762*%
%ADD25C,2.032*%
%ADD24C,1.524*%
%ADD23C,1.270*%
%ADD22C,0.002*%
G54D22*G36*
X26729Y100326D02*Y99056D01*
X27999D01*
Y100326D01*
X26729D01*
G37*
G54D23*X29904Y99691D03*
X32444D03*
G54D22*G36*
X49744Y103478D02*Y101954D01*
X51268D01*
Y103478D01*
X49744D01*
G37*
G54D24*X50506Y97636D03*
X40676Y95525D03*
Y92985D03*
G54D22*G36*
X43019Y90503D02*Y88979D01*
X44543D01*
Y90503D01*
X43019D01*
G37*
G54D24*X33621Y89741D03*
G54D22*G36*
X28813Y110034D02*Y108510D01*
X30337D01*
Y110034D01*
X28813D01*
G37*
G54D24*X39599Y106784D03*
X29575Y111812D03*
G54D22*G36*
X38837Y112626D02*Y111102D01*
X40361D01*
Y112626D01*
X38837D01*
G37*
G36*
X5343Y103369D02*Y102099D01*
X6613D01*
Y103369D01*
X5343D01*
G37*
G54D23*X5978Y105274D03*
Y107814D03*
G54D24*X46754Y124199D03*
X47506Y107532D03*
Y110072D03*
G54D22*G36*
X45992Y114801D02*Y113277D01*
X47516D01*
Y114801D01*
X45992D01*
G37*
G36*
X39980Y121475D02*Y120205D01*
X41250D01*
Y121475D01*
X39980D01*
G37*
G54D23*X40615Y118300D03*
G54D22*G36*
X21241Y96271D02*Y94747D01*
X22765D01*
Y96271D01*
X21241D01*
G37*
G54D24*X19463Y95509D03*
X12829Y94099D03*
G54D22*G36*
X18893Y119838D02*Y118314D01*
X20417D01*
Y119838D01*
X18893D01*
G37*
G54D24*X22195Y119076D03*
G54D25*X15240Y113792D03*
Y111252D03*
Y108712D03*
Y106172D03*
X22860Y108712D03*
Y111252D03*
G54D22*G36*
X12067Y105021D02*Y103497D01*
X13591D01*
Y105021D01*
X12067D01*
G37*
G36*
X10223Y112290D02*Y110766D01*
X11747D01*
Y112290D01*
X10223D01*
G37*
G54D24*X10985Y121688D03*
G54D22*G36*
X21844Y107188D02*Y105156D01*
X23876D01*
Y107188D01*
X21844D01*
G37*
G54D25*X22860Y113792D03*
G54D26*G54D27*G54D28*G54D27*G54D28*G54D26*G54D28*G54D27*G54D26*G54D28*G54D29*G54D27*G54D30*G54D27*G54D31*G54D32*M02*
