G04 start of page 18 for group -3984 idx -3984 *
G04 Title: (unknown), fab *
G04 Creator: pcb-gtk 1.99z *
G04 CreationDate: Sat Jun  4 21:01:05 2016 UTC *
G04 For: khazakar *
G04 Format: Gerber/RS-274X *
G04 PCB-Dimensions (mm): 152.40 127.00 *
G04 PCB-Coordinate-Origin: lower left *
%MOMM*%
%FSLAX43Y43*%
%LNFAB*%
%ADD117C,0.002*%
%ADD116C,0.254*%
%ADD115C,0.191*%
%ADD114C,0.152*%
%ADD113C,0.203*%
G54D113*X1270Y126543D02*Y124917D01*
X457Y125730D02*X2083D01*
X864Y126136D02*X1676D01*
X864D02*Y125324D01*
X1676D01*
Y126136D02*Y125324D01*
X1270Y88189D02*Y86563D01*
X457Y87376D02*X2083D01*
X864Y87782D02*X1676D01*
X864D02*Y86970D01*
X1676D01*
Y87782D02*Y86970D01*
X57150Y88189D02*Y86563D01*
X56337Y87376D02*X57963D01*
X56744Y87782D02*X57556D01*
X56744D02*Y86970D01*
X57556D01*
Y87782D02*Y86970D01*
X57150Y126543D02*Y124917D01*
X56337Y125730D02*X57963D01*
X56744Y126136D02*X57556D01*
X56744D02*Y125324D01*
X57556D01*
Y126136D02*Y125324D01*
X3810Y130670D02*Y129045D01*
X2997Y129857D02*X4623D01*
X3404Y130264D02*X4216D01*
X3404D02*Y129451D01*
X4216D01*
Y130264D02*Y129451D01*
G54D114*X35560Y130429D02*Y128905D01*
Y130429D02*X36512Y128905D01*
Y130429D02*Y128905D01*
X36970Y130238D02*Y129095D01*
Y130238D02*X37160Y130429D01*
X37541D01*
X37732Y130238D01*
Y129095D01*
X37541Y128905D02*X37732Y129095D01*
X37160Y128905D02*X37541D01*
X36970Y129095D02*X37160Y128905D01*
X24892Y129476D02*X25654Y130429D01*
X24892Y129476D02*X25844D01*
X25654Y130429D02*Y128905D01*
X11430Y129095D02*X11620Y128905D01*
X11430Y130238D02*Y129095D01*
Y130238D02*X11620Y130429D01*
X12002D01*
X12192Y130238D01*
Y129095D01*
X12002Y128905D02*X12192Y129095D01*
X11620Y128905D02*X12002D01*
X11430Y129286D02*X12192Y130048D01*
X12649Y128905D02*X12840D01*
X13297Y129095D02*X13487Y128905D01*
X13297Y130238D02*Y129095D01*
Y130238D02*X13487Y130429D01*
X13868D01*
X14059Y130238D01*
Y129095D01*
X13868Y128905D02*X14059Y129095D01*
X13487Y128905D02*X13868D01*
X13297Y129286D02*X14059Y130048D01*
X14707Y128905D02*X15469Y130429D01*
X14516D02*X15469D01*
X16116Y128905D02*X16688Y129667D01*
Y130238D02*Y129667D01*
X16497Y130429D02*X16688Y130238D01*
X16116Y130429D02*X16497D01*
X15926Y130238D02*X16116Y130429D01*
X15926Y130238D02*Y129857D01*
X16116Y129667D01*
X16688D01*
X22860Y106172D02*Y105359D01*
Y106172D02*X23564Y106578D01*
X22860Y106172D02*X22156Y106578D01*
X22454Y106172D02*G75*G03X23266Y106172I406J0D01*G01*
G75*G03X22454Y106172I-406J0D01*G01*
X3810Y133668D02*Y132855D01*
Y133668D02*X4514Y134074D01*
X3810Y133668D02*X3106Y134074D01*
X3404Y133668D02*G75*G03X4216Y133668I406J0D01*G01*
G75*G03X3404Y133668I-406J0D01*G01*
X34290Y134239D02*X34671Y133477D01*
X35052Y134239D01*
X34671Y133477D02*Y132715D01*
X35509Y133553D02*X36081D01*
X35509Y132715D02*X36271D01*
X35509Y134239D02*Y132715D01*
Y134239D02*X36271D01*
X37490D02*X37681Y134048D01*
X36919Y134239D02*X37490D01*
X36728Y134048D02*X36919Y134239D01*
X36728Y134048D02*Y133668D01*
X36919Y133477D01*
X37490D01*
X37681Y133286D01*
Y132906D01*
X37490Y132715D02*X37681Y132906D01*
X36919Y132715D02*X37490D01*
X36728Y132906D02*X36919Y132715D01*
X24892Y133934D02*X25197Y134239D01*
Y132715D01*
X24892D02*X25464D01*
X11430Y132906D02*X11620Y132715D01*
X11430Y134048D02*Y132906D01*
Y134048D02*X11620Y134239D01*
X12002D01*
X12192Y134048D01*
Y132906D01*
X12002Y132715D02*X12192Y132906D01*
X11620Y132715D02*X12002D01*
X11430Y133096D02*X12192Y133858D01*
X12649Y132715D02*X12840D01*
X13297Y132906D02*X13487Y132715D01*
X13297Y134048D02*Y132906D01*
Y134048D02*X13487Y134239D01*
X13868D01*
X14059Y134048D01*
Y132906D01*
X13868Y132715D02*X14059Y132906D01*
X13487Y132715D02*X13868D01*
X13297Y133096D02*X14059Y133858D01*
X14516Y133286D02*X15278Y134239D01*
X14516Y133286D02*X15469D01*
X15278Y134239D02*Y132715D01*
X15926Y134239D02*X16688D01*
X15926D02*Y133477D01*
X16116Y133668D01*
X16497D01*
X16688Y133477D01*
Y132906D01*
X16497Y132715D02*X16688Y132906D01*
X16116Y132715D02*X16497D01*
X15926Y132906D02*X16116Y132715D01*
X22454Y109118D02*X23266D01*
X22454D02*Y108306D01*
X23266D01*
Y109118D02*Y108306D01*
X22454Y111658D02*X23266D01*
X22454D02*Y110846D01*
X23266D01*
Y111658D02*Y110846D01*
X14834Y114198D02*X15646D01*
X14834D02*Y113386D01*
X15646D01*
Y114198D02*Y113386D01*
X14834Y111658D02*X15646D01*
X14834D02*Y110846D01*
X15646D01*
Y111658D02*Y110846D01*
X14834Y109118D02*X15646D01*
X14834D02*Y108306D01*
X15646D01*
Y109118D02*Y108306D01*
X14834Y106578D02*X15646D01*
X14834D02*Y105766D01*
X15646D01*
Y106578D02*Y105766D01*
X3404Y137884D02*X4216D01*
X3404D02*Y137071D01*
X4216D01*
Y137884D02*Y137071D01*
X34290Y138049D02*X34671Y137287D01*
X35052Y138049D01*
X34671Y137287D02*Y136525D01*
X35509Y137363D02*X36081D01*
X35509Y136525D02*X36271D01*
X35509Y138049D02*Y136525D01*
Y138049D02*X36271D01*
X37490D02*X37681Y137858D01*
X36919Y138049D02*X37490D01*
X36728Y137858D02*X36919Y138049D01*
X36728Y137858D02*Y137478D01*
X36919Y137287D01*
X37490D01*
X37681Y137096D01*
Y136716D01*
X37490Y136525D02*X37681Y136716D01*
X36919Y136525D02*X37490D01*
X36728Y136716D02*X36919Y136525D01*
X25464Y138049D02*X25654Y137858D01*
X25082Y138049D02*X25464D01*
X24892Y137858D02*X25082Y138049D01*
X24892Y137858D02*Y136716D01*
X25082Y136525D01*
X25464Y137363D02*X25654Y137173D01*
X24892Y137363D02*X25464D01*
X25082Y136525D02*X25464D01*
X25654Y136716D01*
Y137173D02*Y136716D01*
X11430D02*X11620Y136525D01*
X11430Y137858D02*Y136716D01*
Y137858D02*X11620Y138049D01*
X12002D01*
X12192Y137858D01*
Y136716D01*
X12002Y136525D02*X12192Y136716D01*
X11620Y136525D02*X12002D01*
X11430Y136906D02*X12192Y137668D01*
X12649Y136525D02*X12840D01*
X13297Y136716D02*X13487Y136525D01*
X13297Y137858D02*Y136716D01*
Y137858D02*X13487Y138049D01*
X13868D01*
X14059Y137858D01*
Y136716D01*
X13868Y136525D02*X14059Y136716D01*
X13487Y136525D02*X13868D01*
X13297Y136906D02*X14059Y137668D01*
X14516Y137096D02*X15278Y138049D01*
X14516Y137096D02*X15469D01*
X15278Y138049D02*Y136525D01*
X15926Y136716D02*X16116Y136525D01*
X15926Y137858D02*Y136716D01*
Y137858D02*X16116Y138049D01*
X16497D01*
X16688Y137858D01*
Y136716D01*
X16497Y136525D02*X16688Y136716D01*
X16116Y136525D02*X16497D01*
X15926Y136906D02*X16688Y137668D01*
X12626Y104259D02*G75*G03X13032Y104259I203J0D01*G01*
G75*G03X12626Y104259I-203J0D01*G01*
X10782Y111528D02*G75*G03X11188Y111528I203J0D01*G01*
G75*G03X10782Y111528I-203J0D01*G01*
Y121688D02*G75*G03X11188Y121688I203J0D01*G01*
G75*G03X10782Y121688I-203J0D01*G01*
X19452Y119076D02*G75*G03X19858Y119076I203J0D01*G01*
G75*G03X19452Y119076I-203J0D01*G01*
X21992D02*G75*G03X22398Y119076I203J0D01*G01*
G75*G03X21992Y119076I-203J0D01*G01*
X50303Y102716D02*G75*G03X50709Y102716I203J0D01*G01*
G75*G03X50303Y102716I-203J0D01*G01*
Y97636D02*G75*G03X50709Y97636I203J0D01*G01*
G75*G03X50303Y97636I-203J0D01*G01*
X40472Y95525D02*G75*G03X40879Y95525I203J0D01*G01*
G75*G03X40472Y95525I-203J0D01*G01*
Y92985D02*G75*G03X40879Y92985I203J0D01*G01*
G75*G03X40472Y92985I-203J0D01*G01*
X43577Y89741D02*G75*G03X43984Y89741I203J0D01*G01*
G75*G03X43577Y89741I-203J0D01*G01*
X33417D02*G75*G03X33824Y89741I203J0D01*G01*
G75*G03X33417Y89741I-203J0D01*G01*
X39396Y111864D02*G75*G03X39802Y111864I203J0D01*G01*
G75*G03X39396Y111864I-203J0D01*G01*
Y106784D02*G75*G03X39802Y106784I203J0D01*G01*
G75*G03X39396Y106784I-203J0D01*G01*
X47303Y107532D02*G75*G03X47709Y107532I203J0D01*G01*
G75*G03X47303Y107532I-203J0D01*G01*
Y110072D02*G75*G03X47709Y110072I203J0D01*G01*
G75*G03X47303Y110072I-203J0D01*G01*
X46551Y114039D02*G75*G03X46957Y114039I203J0D01*G01*
G75*G03X46551Y114039I-203J0D01*G01*
Y124199D02*G75*G03X46957Y124199I203J0D01*G01*
G75*G03X46551Y124199I-203J0D01*G01*
X29372Y109272D02*G75*G03X29778Y109272I203J0D01*G01*
G75*G03X29372Y109272I-203J0D01*G01*
Y111812D02*G75*G03X29778Y111812I203J0D01*G01*
G75*G03X29372Y111812I-203J0D01*G01*
X3607Y141288D02*G75*G03X4013Y141288I203J0D01*G01*
G75*G03X3607Y141288I-203J0D01*G01*
X34290Y141859D02*X34671Y141097D01*
X35052Y141859D01*
X34671Y141097D02*Y140335D01*
X35509Y141173D02*X36081D01*
X35509Y140335D02*X36271D01*
X35509Y141859D02*Y140335D01*
Y141859D02*X36271D01*
X37490D02*X37681Y141668D01*
X36919Y141859D02*X37490D01*
X36728Y141668D02*X36919Y141859D01*
X36728Y141668D02*Y141288D01*
X36919Y141097D01*
X37490D01*
X37681Y140906D01*
Y140526D01*
X37490Y140335D02*X37681Y140526D01*
X36919Y140335D02*X37490D01*
X36728Y140526D02*X36919Y140335D01*
X24892Y141554D02*X25197Y141859D01*
Y140335D01*
X24892D02*X25464D01*
X26111D02*X26683Y141097D01*
Y141668D02*Y141097D01*
X26492Y141859D02*X26683Y141668D01*
X26111Y141859D02*X26492D01*
X25921Y141668D02*X26111Y141859D01*
X25921Y141668D02*Y141288D01*
X26111Y141097D01*
X26683D01*
X11430Y140526D02*X11620Y140335D01*
X11430Y141668D02*Y140526D01*
Y141668D02*X11620Y141859D01*
X12002D01*
X12192Y141668D01*
Y140526D01*
X12002Y140335D02*X12192Y140526D01*
X11620Y140335D02*X12002D01*
X11430Y140716D02*X12192Y141478D01*
X12649Y140335D02*X12840D01*
X13297Y140526D02*X13487Y140335D01*
X13297Y141668D02*Y140526D01*
Y141668D02*X13487Y141859D01*
X13868D01*
X14059Y141668D01*
Y140526D01*
X13868Y140335D02*X14059Y140526D01*
X13487Y140335D02*X13868D01*
X13297Y140716D02*X14059Y141478D01*
X14516Y141668D02*X14707Y141859D01*
X15088D01*
X15278Y141668D01*
X15088Y140335D02*X15278Y140526D01*
X14707Y140335D02*X15088D01*
X14516Y140526D02*X14707Y140335D01*
Y141173D02*X15088D01*
X15278Y141668D02*Y141364D01*
Y140983D02*Y140526D01*
Y140983D02*X15088Y141173D01*
X15278Y141364D02*X15088Y141173D01*
X15735Y140526D02*X15926Y140335D01*
X15735Y140830D02*Y140526D01*
Y140830D02*X16002Y141097D01*
X16231D01*
X16497Y140830D01*
Y140526D01*
X16307Y140335D02*X16497Y140526D01*
X15926Y140335D02*X16307D01*
X15735Y141364D02*X16002Y141097D01*
X15735Y141668D02*Y141364D01*
Y141668D02*X15926Y141859D01*
X16307D01*
X16497Y141668D01*
Y141364D01*
X16231Y141097D02*X16497Y141364D01*
X22555Y114097D02*X23165Y113487D01*
X22555D02*X23165Y114097D01*
X3505Y145402D02*X4115Y144793D01*
X3505D02*X4115Y145402D01*
X34290Y145669D02*X34671Y144907D01*
X35052Y145669D01*
X34671Y144907D02*Y144145D01*
X35509Y144983D02*X36081D01*
X35509Y144145D02*X36271D01*
X35509Y145669D02*Y144145D01*
Y145669D02*X36271D01*
X37490D02*X37681Y145478D01*
X36919Y145669D02*X37490D01*
X36728Y145478D02*X36919Y145669D01*
X36728Y145478D02*Y145098D01*
X36919Y144907D01*
X37490D01*
X37681Y144716D01*
Y144336D01*
X37490Y144145D02*X37681Y144336D01*
X36919Y144145D02*X37490D01*
X36728Y144336D02*X36919Y144145D01*
X24892Y145364D02*X25197Y145669D01*
Y144145D01*
X24892D02*X25464D01*
X11430Y144336D02*X11620Y144145D01*
X11430Y145478D02*Y144336D01*
Y145478D02*X11620Y145669D01*
X12002D01*
X12192Y145478D01*
Y144336D01*
X12002Y144145D02*X12192Y144336D01*
X11620Y144145D02*X12002D01*
X11430Y144526D02*X12192Y145288D01*
X12649Y144145D02*X12840D01*
X13297Y144336D02*X13487Y144145D01*
X13297Y145478D02*Y144336D01*
Y145478D02*X13487Y145669D01*
X13868D01*
X14059Y145478D01*
Y144336D01*
X13868Y144145D02*X14059Y144336D01*
X13487Y144145D02*X13868D01*
X13297Y144526D02*X14059Y145288D01*
X14516Y145478D02*X14707Y145669D01*
X15088D01*
X15278Y145478D01*
X15088Y144145D02*X15278Y144336D01*
X14707Y144145D02*X15088D01*
X14516Y144336D02*X14707Y144145D01*
Y144983D02*X15088D01*
X15278Y145478D02*Y145174D01*
Y144793D02*Y144336D01*
Y144793D02*X15088Y144983D01*
X15278Y145174D02*X15088Y144983D01*
X15735Y145669D02*X16497D01*
X15735D02*Y144907D01*
X15926Y145098D01*
X16307D01*
X16497Y144907D01*
Y144336D01*
X16307Y144145D02*X16497Y144336D01*
X15926Y144145D02*X16307D01*
X15735Y144336D02*X15926Y144145D01*
X27364Y100098D02*Y99285D01*
X26957Y99691D02*X27770D01*
X29904Y100098D02*Y99285D01*
X29497Y99691D02*X30310D01*
X32444Y100098D02*Y99285D01*
X32037Y99691D02*X32850D01*
X5978Y103140D02*Y102327D01*
X5571Y102734D02*X6384D01*
X5978Y105680D02*Y104867D01*
X5571Y105274D02*X6384D01*
X5978Y108220D02*Y107407D01*
X5571Y107814D02*X6384D01*
X40615Y121247D02*Y120434D01*
X40209Y120840D02*X41021D01*
X40615Y118707D02*Y117894D01*
X40209Y118300D02*X41021D01*
X3810Y149314D02*Y148501D01*
X3404Y148908D02*X4216D01*
X34290Y149479D02*X34671Y148717D01*
X35052Y149479D01*
X34671Y148717D02*Y147955D01*
X35509Y148793D02*X36081D01*
X35509Y147955D02*X36271D01*
X35509Y149479D02*Y147955D01*
Y149479D02*X36271D01*
X37490D02*X37681Y149288D01*
X36919Y149479D02*X37490D01*
X36728Y149288D02*X36919Y149479D01*
X36728Y149288D02*Y148908D01*
X36919Y148717D01*
X37490D01*
X37681Y148526D01*
Y148146D01*
X37490Y147955D02*X37681Y148146D01*
X36919Y147955D02*X37490D01*
X36728Y148146D02*X36919Y147955D01*
X24892Y148146D02*X25082Y147955D01*
X24892Y148450D02*Y148146D01*
Y148450D02*X25159Y148717D01*
X25387D01*
X25654Y148450D01*
Y148146D01*
X25464Y147955D02*X25654Y148146D01*
X25082Y147955D02*X25464D01*
X24892Y148984D02*X25159Y148717D01*
X24892Y149288D02*Y148984D01*
Y149288D02*X25082Y149479D01*
X25464D01*
X25654Y149288D01*
Y148984D01*
X25387Y148717D02*X25654Y148984D01*
X11430Y148146D02*X11620Y147955D01*
X11430Y149288D02*Y148146D01*
Y149288D02*X11620Y149479D01*
X12002D01*
X12192Y149288D01*
Y148146D01*
X12002Y147955D02*X12192Y148146D01*
X11620Y147955D02*X12002D01*
X11430Y148336D02*X12192Y149098D01*
X12649Y147955D02*X12840D01*
X13297Y148146D02*X13487Y147955D01*
X13297Y149288D02*Y148146D01*
Y149288D02*X13487Y149479D01*
X13868D01*
X14059Y149288D01*
Y148146D01*
X13868Y147955D02*X14059Y148146D01*
X13487Y147955D02*X13868D01*
X13297Y148336D02*X14059Y149098D01*
X14516Y149288D02*X14707Y149479D01*
X15088D01*
X15278Y149288D01*
X15088Y147955D02*X15278Y148146D01*
X14707Y147955D02*X15088D01*
X14516Y148146D02*X14707Y147955D01*
Y148793D02*X15088D01*
X15278Y149288D02*Y148984D01*
Y148603D02*Y148146D01*
Y148603D02*X15088Y148793D01*
X15278Y148984D02*X15088Y148793D01*
X15735Y148146D02*X15926Y147955D01*
X15735Y149288D02*Y148146D01*
Y149288D02*X15926Y149479D01*
X16307D01*
X16497Y149288D01*
Y148146D01*
X16307Y147955D02*X16497Y148146D01*
X15926Y147955D02*X16307D01*
X15735Y148336D02*X16497Y149098D01*
X12829Y94099D02*Y93692D01*
Y94099D02*X13181Y94302D01*
X12829Y94099D02*X12477Y94302D01*
X22003Y95509D02*Y95102D01*
Y95509D02*X22355Y95712D01*
X22003Y95509D02*X21650Y95712D01*
X19463Y95509D02*Y95102D01*
Y95509D02*X19815Y95712D01*
X19463Y95509D02*X19110Y95712D01*
X3810Y152718D02*Y152311D01*
Y152718D02*X4162Y152921D01*
X3810Y152718D02*X3458Y152921D01*
X34290Y153289D02*X34671Y152527D01*
X35052Y153289D01*
X34671Y152527D02*Y151765D01*
X35509Y152603D02*X36081D01*
X35509Y151765D02*X36271D01*
X35509Y153289D02*Y151765D01*
Y153289D02*X36271D01*
X37490D02*X37681Y153098D01*
X36919Y153289D02*X37490D01*
X36728Y153098D02*X36919Y153289D01*
X36728Y153098D02*Y152718D01*
X36919Y152527D01*
X37490D01*
X37681Y152336D01*
Y151956D01*
X37490Y151765D02*X37681Y151956D01*
X36919Y151765D02*X37490D01*
X36728Y151956D02*X36919Y151765D01*
X24892Y153098D02*X25082Y153289D01*
X25464D01*
X25654Y153098D01*
X25464Y151765D02*X25654Y151956D01*
X25082Y151765D02*X25464D01*
X24892Y151956D02*X25082Y151765D01*
Y152603D02*X25464D01*
X25654Y153098D02*Y152794D01*
Y152413D02*Y151956D01*
Y152413D02*X25464Y152603D01*
X25654Y152794D02*X25464Y152603D01*
X11430Y151956D02*X11620Y151765D01*
X11430Y153098D02*Y151956D01*
Y153098D02*X11620Y153289D01*
X12002D01*
X12192Y153098D01*
Y151956D01*
X12002Y151765D02*X12192Y151956D01*
X11620Y151765D02*X12002D01*
X11430Y152146D02*X12192Y152908D01*
X12649Y151765D02*X12840D01*
X13297Y151956D02*X13487Y151765D01*
X13297Y153098D02*Y151956D01*
Y153098D02*X13487Y153289D01*
X13868D01*
X14059Y153098D01*
Y151956D01*
X13868Y151765D02*X14059Y151956D01*
X13487Y151765D02*X13868D01*
X13297Y152146D02*X14059Y152908D01*
X14516Y153098D02*X14707Y153289D01*
X15278D01*
X15469Y153098D01*
Y152718D01*
X14516Y151765D02*X15469Y152718D01*
X14516Y151765D02*X15469D01*
X15926Y151956D02*X16116Y151765D01*
X15926Y152260D02*Y151956D01*
Y152260D02*X16193Y152527D01*
X16421D01*
X16688Y152260D01*
Y151956D01*
X16497Y151765D02*X16688Y151956D01*
X16116Y151765D02*X16497D01*
X15926Y152794D02*X16193Y152527D01*
X15926Y153098D02*Y152794D01*
Y153098D02*X16116Y153289D01*
X16497D01*
X16688Y153098D01*
Y152794D01*
X16421Y152527D02*X16688Y152794D01*
X762Y157099D02*X952Y156908D01*
X190Y157099D02*X762D01*
X0Y156908D02*X190Y157099D01*
X0Y156908D02*Y156528D01*
X190Y156337D01*
X762D01*
X952Y156146D01*
Y155766D01*
X762Y155575D02*X952Y155766D01*
X190Y155575D02*X762D01*
X0Y155766D02*X190Y155575D01*
X1410Y156337D02*Y155766D01*
X1600Y155575D01*
X2172Y156337D02*Y155194D01*
X1981Y155004D02*X2172Y155194D01*
X1600Y155004D02*X1981D01*
X1410Y155194D02*X1600Y155004D01*
Y155575D02*X1981D01*
X2172Y155766D01*
X2819Y156146D02*Y155575D01*
Y156146D02*X3010Y156337D01*
X3200D01*
X3391Y156146D01*
Y155575D01*
Y156146D02*X3581Y156337D01*
X3772D01*
X3962Y156146D01*
Y155575D01*
X2629Y156337D02*X2819Y156146D01*
X4420Y157099D02*Y155575D01*
Y155766D02*X4610Y155575D01*
X4991D01*
X5182Y155766D01*
Y156146D02*Y155766D01*
X4991Y156337D02*X5182Y156146D01*
X4610Y156337D02*X4991D01*
X4420Y156146D02*X4610Y156337D01*
X5639Y156146D02*Y155766D01*
Y156146D02*X5829Y156337D01*
X6210D01*
X6401Y156146D01*
Y155766D01*
X6210Y155575D02*X6401Y155766D01*
X5829Y155575D02*X6210D01*
X5639Y155766D02*X5829Y155575D01*
X6858Y157099D02*Y155766D01*
X7049Y155575D01*
X0Y155130D02*X7430D01*
X10604Y157099D02*Y155575D01*
X11100Y157099D02*X11366Y156832D01*
Y155842D01*
X11100Y155575D02*X11366Y155842D01*
X10414Y155575D02*X11100D01*
X10414Y157099D02*X11100D01*
G54D115*X11824Y156718D02*Y156680D01*
G54D114*Y156146D02*Y155575D01*
X12776Y156337D02*X12967Y156146D01*
X12395Y156337D02*X12776D01*
X12205Y156146D02*X12395Y156337D01*
X12205Y156146D02*Y155766D01*
X12395Y155575D01*
X12967Y156337D02*Y155766D01*
X13157Y155575D01*
X12395D02*X12776D01*
X12967Y155766D01*
X13805Y156146D02*Y155575D01*
Y156146D02*X13995Y156337D01*
X14186D01*
X14376Y156146D01*
Y155575D01*
Y156146D02*X14567Y156337D01*
X14757D01*
X14948Y156146D01*
Y155575D01*
X13614Y156337D02*X13805Y156146D01*
X15405Y155575D02*X15596D01*
X16739Y155766D02*X16929Y155575D01*
X16739Y156908D02*X16929Y157099D01*
X16739Y156908D02*Y155766D01*
X17386Y157099D02*X17767D01*
X17577D02*Y155575D01*
X17386D02*X17767D01*
X18415Y156146D02*Y155575D01*
Y156146D02*X18606Y156337D01*
X18796D01*
X18987Y156146D01*
Y155575D01*
X18225Y156337D02*X18415Y156146D01*
X19634Y156337D02*X20206D01*
X19444Y156146D02*X19634Y156337D01*
X19444Y156146D02*Y155766D01*
X19634Y155575D01*
X20206D01*
X20663Y157099D02*Y155575D01*
Y156146D02*X20853Y156337D01*
X21234D01*
X21425Y156146D01*
Y155575D01*
X21882Y157099D02*X22073Y156908D01*
Y155766D01*
X21882Y155575D02*X22073Y155766D01*
X10414Y155130D02*X22530D01*
X24397Y155575D02*X24892D01*
X24130Y155842D02*X24397Y155575D01*
X24130Y156832D02*Y155842D01*
Y156832D02*X24397Y157099D01*
X24892D01*
X25349Y156146D02*Y155766D01*
Y156146D02*X25540Y156337D01*
X25921D01*
X26111Y156146D01*
Y155766D01*
X25921Y155575D02*X26111Y155766D01*
X25540Y155575D02*X25921D01*
X25349Y155766D02*X25540Y155575D01*
X26568Y156337D02*Y155766D01*
X26759Y155575D01*
X27140D01*
X27330Y155766D01*
Y156337D02*Y155766D01*
X27978Y156146D02*Y155575D01*
Y156146D02*X28169Y156337D01*
X28359D01*
X28550Y156146D01*
Y155575D01*
X27788Y156337D02*X27978Y156146D01*
X29197Y157099D02*Y155766D01*
X29388Y155575D01*
X29007Y156528D02*X29388D01*
X24130Y155130D02*X29769D01*
X33210Y157099D02*Y155575D01*
X33020Y157099D02*X33782D01*
X33972Y156908D01*
Y156528D01*
X33782Y156337D02*X33972Y156528D01*
X33210Y156337D02*X33782D01*
X34430Y157099D02*Y155766D01*
X34620Y155575D01*
X35573Y156337D02*X35763Y156146D01*
X35192Y156337D02*X35573D01*
X35001Y156146D02*X35192Y156337D01*
X35001Y156146D02*Y155766D01*
X35192Y155575D01*
X35763Y156337D02*Y155766D01*
X35954Y155575D01*
X35192D02*X35573D01*
X35763Y155766D01*
X36601Y157099D02*Y155766D01*
X36792Y155575D01*
X36411Y156528D02*X36792D01*
X37363Y155575D02*X37935D01*
X37173Y155766D02*X37363Y155575D01*
X37173Y156146D02*Y155766D01*
Y156146D02*X37363Y156337D01*
X37744D01*
X37935Y156146D01*
X37173Y155956D02*X37935D01*
Y156146D02*Y155956D01*
X39154Y157099D02*Y155575D01*
X38964D02*X39154Y155766D01*
X38583Y155575D02*X38964D01*
X38392Y155766D02*X38583Y155575D01*
X38392Y156146D02*Y155766D01*
Y156146D02*X38583Y156337D01*
X38964D01*
X39154Y156146D01*
X39992Y156337D02*Y156146D01*
Y155766D02*Y155575D01*
X39611Y156908D02*Y156718D01*
Y156908D02*X39802Y157099D01*
X40183D01*
X40373Y156908D01*
Y156718D01*
X39992Y156337D02*X40373Y156718D01*
X33020Y155130D02*X40831D01*
X0Y160909D02*X762D01*
X381D02*Y159385D01*
X1219Y160909D02*Y159385D01*
Y159956D02*X1410Y160147D01*
X1791D01*
X1981Y159956D01*
Y159385D01*
X2629D02*X3200D01*
X2438Y159576D02*X2629Y159385D01*
X2438Y159956D02*Y159576D01*
Y159956D02*X2629Y160147D01*
X3010D01*
X3200Y159956D01*
X2438Y159766D02*X3200D01*
Y159956D02*Y159766D01*
X3848Y159956D02*Y159385D01*
Y159956D02*X4039Y160147D01*
X4420D01*
X3658D02*X3848Y159956D01*
X5067Y159385D02*X5639D01*
X4877Y159576D02*X5067Y159385D01*
X4877Y159956D02*Y159576D01*
Y159956D02*X5067Y160147D01*
X5448D01*
X5639Y159956D01*
X4877Y159766D02*X5639D01*
Y159956D02*Y159766D01*
X7353Y160147D02*X7544Y159956D01*
X6972Y160147D02*X7353D01*
X6782Y159956D02*X6972Y160147D01*
X6782Y159956D02*Y159576D01*
X6972Y159385D01*
X7544Y160147D02*Y159576D01*
X7734Y159385D01*
X6972D02*X7353D01*
X7544Y159576D01*
X8382Y159956D02*Y159385D01*
Y159956D02*X8573Y160147D01*
X8954D01*
X8192D02*X8382Y159956D01*
X9601Y159385D02*X10173D01*
X9411Y159576D02*X9601Y159385D01*
X9411Y159956D02*Y159576D01*
Y159956D02*X9601Y160147D01*
X9982D01*
X10173Y159956D01*
X9411Y159766D02*X10173D01*
Y159956D02*Y159766D01*
X11506Y159385D02*X12268Y160909D01*
X11316D02*X12268D01*
X14173D02*Y159385D01*
X13983D02*X14173Y159576D01*
X13602Y159385D02*X13983D01*
X13411Y159576D02*X13602Y159385D01*
X13411Y159956D02*Y159576D01*
Y159956D02*X13602Y160147D01*
X13983D01*
X14173Y159956D01*
G54D115*X14630Y160528D02*Y160490D01*
G54D114*Y159956D02*Y159385D01*
X15202Y160718D02*Y159385D01*
Y160718D02*X15392Y160909D01*
X15583D01*
X15011Y160147D02*X15392D01*
X16154Y160718D02*Y159385D01*
Y160718D02*X16345Y160909D01*
X16535D01*
X15964Y160147D02*X16345D01*
X17107Y159385D02*X17678D01*
X16916Y159576D02*X17107Y159385D01*
X16916Y159956D02*Y159576D01*
Y159956D02*X17107Y160147D01*
X17488D01*
X17678Y159956D01*
X16916Y159766D02*X17678D01*
Y159956D02*Y159766D01*
X18326Y159956D02*Y159385D01*
Y159956D02*X18517Y160147D01*
X18898D01*
X18136D02*X18326Y159956D01*
X19545Y159385D02*X20117D01*
X19355Y159576D02*X19545Y159385D01*
X19355Y159956D02*Y159576D01*
Y159956D02*X19545Y160147D01*
X19926D01*
X20117Y159956D01*
X19355Y159766D02*X20117D01*
Y159956D02*Y159766D01*
X20765Y159956D02*Y159385D01*
Y159956D02*X20955Y160147D01*
X21146D01*
X21336Y159956D01*
Y159385D01*
X20574Y160147D02*X20765Y159956D01*
X21984Y160909D02*Y159576D01*
X22174Y159385D01*
X21793Y160338D02*X22174D01*
X24003Y160909D02*Y159385D01*
X23813D02*X24003Y159576D01*
X23432Y159385D02*X23813D01*
X23241Y159576D02*X23432Y159385D01*
X23241Y159956D02*Y159576D01*
Y159956D02*X23432Y160147D01*
X23813D01*
X24003Y159956D01*
X24651D02*Y159385D01*
Y159956D02*X24841Y160147D01*
X25222D01*
X24460D02*X24651Y159956D01*
G54D115*X25679Y160528D02*Y160490D01*
G54D114*Y159956D02*Y159385D01*
X26060Y160909D02*Y159576D01*
X26251Y159385D01*
X26632Y160909D02*Y159576D01*
X26822Y159385D01*
X28080D02*X28651D01*
X28842Y159576D01*
X28651Y159766D02*X28842Y159576D01*
X28080Y159766D02*X28651D01*
X27889Y159956D02*X28080Y159766D01*
X27889Y159956D02*X28080Y160147D01*
X28651D01*
X28842Y159956D01*
X27889Y159576D02*X28080Y159385D01*
G54D115*X29299Y160528D02*Y160490D01*
G54D114*Y159956D02*Y159385D01*
X29680Y160147D02*X30442D01*
X29680Y159385D02*X30442Y160147D01*
X29680Y159385D02*X30442D01*
X31090D02*X31661D01*
X30899Y159576D02*X31090Y159385D01*
X30899Y159956D02*Y159576D01*
Y159956D02*X31090Y160147D01*
X31471D01*
X31661Y159956D01*
X30899Y159766D02*X31661D01*
Y159956D02*Y159766D01*
X32309Y159385D02*X32880D01*
X33071Y159576D01*
X32880Y159766D02*X33071Y159576D01*
X32309Y159766D02*X32880D01*
X32118Y159956D02*X32309Y159766D01*
X32118Y159956D02*X32309Y160147D01*
X32880D01*
X33071Y159956D01*
X32118Y159576D02*X32309Y159385D01*
X34214Y160147D02*Y159576D01*
X34404Y159385D01*
X34785D01*
X34976Y159576D01*
Y160147D02*Y159576D01*
X35624Y159385D02*X36195D01*
X36386Y159576D01*
X36195Y159766D02*X36386Y159576D01*
X35624Y159766D02*X36195D01*
X35433Y159956D02*X35624Y159766D01*
X35433Y159956D02*X35624Y160147D01*
X36195D01*
X36386Y159956D01*
X35433Y159576D02*X35624Y159385D01*
X37033D02*X37605D01*
X36843Y159576D02*X37033Y159385D01*
X36843Y159956D02*Y159576D01*
Y159956D02*X37033Y160147D01*
X37414D01*
X37605Y159956D01*
X36843Y159766D02*X37605D01*
Y159956D02*Y159766D01*
X38824Y160909D02*Y159385D01*
X38633D02*X38824Y159576D01*
X38252Y159385D02*X38633D01*
X38062Y159576D02*X38252Y159385D01*
X38062Y159956D02*Y159576D01*
Y159956D02*X38252Y160147D01*
X38633D01*
X38824Y159956D01*
G54D115*X39967Y160528D02*Y160490D01*
G54D114*Y159956D02*Y159385D01*
X40538Y159956D02*Y159385D01*
Y159956D02*X40729Y160147D01*
X40919D01*
X41110Y159956D01*
Y159385D01*
X40348Y160147D02*X40538Y159956D01*
X42443Y160909D02*Y159576D01*
X42634Y159385D01*
X42253Y160338D02*X42634D01*
X43015Y160909D02*Y159385D01*
Y159956D02*X43205Y160147D01*
X43586D01*
X43777Y159956D01*
Y159385D01*
G54D115*X44234Y160528D02*Y160490D01*
G54D114*Y159956D02*Y159385D01*
X44806D02*X45377D01*
X45568Y159576D01*
X45377Y159766D02*X45568Y159576D01*
X44806Y159766D02*X45377D01*
X44615Y159956D02*X44806Y159766D01*
X44615Y159956D02*X44806Y160147D01*
X45377D01*
X45568Y159956D01*
X44615Y159576D02*X44806Y159385D01*
X46711Y160909D02*Y159576D01*
X46901Y159385D01*
X47854Y160147D02*X48044Y159956D01*
X47473Y160147D02*X47854D01*
X47282Y159956D02*X47473Y160147D01*
X47282Y159956D02*Y159576D01*
X47473Y159385D01*
X48044Y160147D02*Y159576D01*
X48235Y159385D01*
X47473D02*X47854D01*
X48044Y159576D01*
X48692Y160147D02*Y159576D01*
X48882Y159385D01*
X49454Y160147D02*Y159004D01*
X49263Y158814D02*X49454Y159004D01*
X48882Y158814D02*X49263D01*
X48692Y159004D02*X48882Y158814D01*
Y159385D02*X49263D01*
X49454Y159576D01*
X49911Y159956D02*Y159576D01*
Y159956D02*X50102Y160147D01*
X50483D01*
X50673Y159956D01*
Y159576D01*
X50483Y159385D02*X50673Y159576D01*
X50102Y159385D02*X50483D01*
X49911Y159576D02*X50102Y159385D01*
X51130Y160147D02*Y159576D01*
X51321Y159385D01*
X51702D01*
X51892Y159576D01*
Y160147D02*Y159576D01*
X52540Y160909D02*Y159576D01*
X52730Y159385D01*
X52349Y160338D02*X52730D01*
X53111Y159004D02*X53492Y159385D01*
X54635Y159956D02*X55397Y160909D01*
X54635Y159956D02*X55588D01*
X55397Y160909D02*Y159385D01*
X56045Y160718D02*X56236Y160909D01*
X56807D01*
X56998Y160718D01*
Y160338D01*
X56045Y159385D02*X56998Y160338D01*
X56045Y159385D02*X56998D01*
X58141Y160909D02*Y159385D01*
Y159956D02*X58331Y160147D01*
X58712D01*
X58903Y159956D01*
Y159385D01*
X59360Y159956D02*Y159576D01*
Y159956D02*X59550Y160147D01*
X59931D01*
X60122Y159956D01*
Y159576D01*
X59931Y159385D02*X60122Y159576D01*
X59550Y159385D02*X59931D01*
X59360Y159576D02*X59550Y159385D01*
X60579Y160909D02*Y159576D01*
X60770Y159385D01*
X61341D02*X61913D01*
X61151Y159576D02*X61341Y159385D01*
X61151Y159956D02*Y159576D01*
Y159956D02*X61341Y160147D01*
X61722D01*
X61913Y159956D01*
X61151Y159766D02*X61913D01*
Y159956D02*Y159766D01*
X62560Y159385D02*X63132D01*
X63322Y159576D01*
X63132Y159766D02*X63322Y159576D01*
X62560Y159766D02*X63132D01*
X62370Y159956D02*X62560Y159766D01*
X62370Y159956D02*X62560Y160147D01*
X63132D01*
X63322Y159956D01*
X62370Y159576D02*X62560Y159385D01*
X64656Y160909D02*Y159576D01*
X64846Y159385D01*
X64465Y160338D02*X64846D01*
X65227Y159956D02*Y159576D01*
Y159956D02*X65418Y160147D01*
X65799D01*
X65989Y159956D01*
Y159576D01*
X65799Y159385D02*X65989Y159576D01*
X65418Y159385D02*X65799D01*
X65227Y159576D02*X65418Y159385D01*
X66637Y160909D02*Y159576D01*
X66827Y159385D01*
X66446Y160338D02*X66827D01*
X67780Y160147D02*X67970Y159956D01*
X67399Y160147D02*X67780D01*
X67208Y159956D02*X67399Y160147D01*
X67208Y159956D02*Y159576D01*
X67399Y159385D01*
X67970Y160147D02*Y159576D01*
X68161Y159385D01*
X67399D02*X67780D01*
X67970Y159576D01*
X68618Y160909D02*Y159576D01*
X68809Y159385D01*
G54D116*X0Y127000D02*Y86106D01*
X58420D01*
Y126746D01*
X58166Y127000D01*
X0D01*
G54D114*X54273Y-2413D02*X55035D01*
X55226Y-2222D01*
Y-1765D02*Y-2222D01*
X55035Y-1575D02*X55226Y-1765D01*
X54464Y-1575D02*X55035D01*
X54464Y-889D02*Y-2413D01*
X54273Y-889D02*X55035D01*
X55226Y-1080D01*
Y-1384D01*
X55035Y-1575D02*X55226Y-1384D01*
X55683Y-1842D02*Y-2222D01*
Y-1842D02*X55874Y-1651D01*
X56255D01*
X56445Y-1842D01*
Y-2222D01*
X56255Y-2413D02*X56445Y-2222D01*
X55874Y-2413D02*X56255D01*
X55683Y-2222D02*X55874Y-2413D01*
X57474Y-1651D02*X57664Y-1842D01*
X57093Y-1651D02*X57474D01*
X56902Y-1842D02*X57093Y-1651D01*
X56902Y-1842D02*Y-2222D01*
X57093Y-2413D01*
X57664Y-1651D02*Y-2222D01*
X57855Y-2413D01*
X57093D02*X57474D01*
X57664Y-2222D01*
X58503Y-1842D02*Y-2413D01*
Y-1842D02*X58693Y-1651D01*
X59074D01*
X58312D02*X58503Y-1842D01*
X60293Y-889D02*Y-2413D01*
X60103D02*X60293Y-2222D01*
X59722Y-2413D02*X60103D01*
X59531Y-2222D02*X59722Y-2413D01*
X59531Y-1842D02*Y-2222D01*
Y-1842D02*X59722Y-1651D01*
X60103D01*
X60293Y-1842D01*
X61436D02*Y-2222D01*
Y-1842D02*X61627Y-1651D01*
X62008D01*
X62198Y-1842D01*
Y-2222D01*
X62008Y-2413D02*X62198Y-2222D01*
X61627Y-2413D02*X62008D01*
X61436Y-2222D02*X61627Y-2413D01*
X62655Y-1651D02*Y-2222D01*
X62846Y-2413D01*
X63227D01*
X63417Y-2222D01*
Y-1651D02*Y-2222D01*
X64065Y-889D02*Y-2222D01*
X64256Y-2413D01*
X63875Y-1460D02*X64256D01*
X64637Y-889D02*Y-2222D01*
X64827Y-2413D01*
G54D115*X65208Y-1270D02*Y-1308D01*
G54D114*Y-1842D02*Y-2413D01*
X65780Y-1842D02*Y-2413D01*
Y-1842D02*X65970Y-1651D01*
X66161D01*
X66351Y-1842D01*
Y-2413D01*
X65589Y-1651D02*X65780Y-1842D01*
X66999Y-2413D02*X67570D01*
X66808Y-2222D02*X66999Y-2413D01*
X66808Y-1842D02*Y-2222D01*
Y-1842D02*X66999Y-1651D01*
X67380D01*
X67570Y-1842D01*
X66808Y-2032D02*X67570D01*
Y-1842D02*Y-2032D01*
G54D115*X68713Y-1270D02*Y-1308D01*
G54D114*Y-1842D02*Y-2413D01*
X69285D02*X69856D01*
X70047Y-2222D01*
X69856Y-2032D02*X70047Y-2222D01*
X69285Y-2032D02*X69856D01*
X69094Y-1842D02*X69285Y-2032D01*
X69094Y-1842D02*X69285Y-1651D01*
X69856D01*
X70047Y-1842D01*
X69094Y-2222D02*X69285Y-2413D01*
X71380Y-889D02*Y-2222D01*
X71571Y-2413D01*
X71190Y-1460D02*X71571D01*
X71952Y-889D02*Y-2413D01*
Y-1842D02*X72142Y-1651D01*
X72523D01*
X72714Y-1842D01*
Y-2413D01*
X73362D02*X73933D01*
X73171Y-2222D02*X73362Y-2413D01*
X73171Y-1842D02*Y-2222D01*
Y-1842D02*X73362Y-1651D01*
X73743D01*
X73933Y-1842D01*
X73171Y-2032D02*X73933D01*
Y-1842D02*Y-2032D01*
X75267Y-1651D02*X75838D01*
X75076Y-1842D02*X75267Y-1651D01*
X75076Y-1842D02*Y-2222D01*
X75267Y-2413D01*
X75838D01*
X76486D02*X77057D01*
X76295Y-2222D02*X76486Y-2413D01*
X76295Y-1842D02*Y-2222D01*
Y-1842D02*X76486Y-1651D01*
X76867D01*
X77057Y-1842D01*
X76295Y-2032D02*X77057D01*
Y-1842D02*Y-2032D01*
X77705Y-1842D02*Y-2413D01*
Y-1842D02*X77895Y-1651D01*
X78086D01*
X78276Y-1842D01*
Y-2413D01*
X77514Y-1651D02*X77705Y-1842D01*
X78924Y-889D02*Y-2222D01*
X79115Y-2413D01*
X78734Y-1460D02*X79115D01*
X79686Y-2413D02*X80258D01*
X79496Y-2222D02*X79686Y-2413D01*
X79496Y-1842D02*Y-2222D01*
Y-1842D02*X79686Y-1651D01*
X80067D01*
X80258Y-1842D01*
X79496Y-2032D02*X80258D01*
Y-1842D02*Y-2032D01*
X80905Y-1842D02*Y-2413D01*
Y-1842D02*X81096Y-1651D01*
X81477D01*
X80715D02*X80905Y-1842D01*
X81934Y-889D02*Y-2222D01*
X82125Y-2413D01*
G54D115*X82506Y-1270D02*Y-1308D01*
G54D114*Y-1842D02*Y-2413D01*
X83077Y-1842D02*Y-2413D01*
Y-1842D02*X83268Y-1651D01*
X83458D01*
X83649Y-1842D01*
Y-2413D01*
X82887Y-1651D02*X83077Y-1842D01*
X84296Y-2413D02*X84868D01*
X84106Y-2222D02*X84296Y-2413D01*
X84106Y-1842D02*Y-2222D01*
Y-1842D02*X84296Y-1651D01*
X84677D01*
X84868Y-1842D01*
X84106Y-2032D02*X84868D01*
Y-1842D02*Y-2032D01*
X86011Y-1842D02*Y-2222D01*
Y-1842D02*X86201Y-1651D01*
X86582D01*
X86773Y-1842D01*
Y-2222D01*
X86582Y-2413D02*X86773Y-2222D01*
X86201Y-2413D02*X86582D01*
X86011Y-2222D02*X86201Y-2413D01*
X87420Y-1080D02*Y-2413D01*
Y-1080D02*X87611Y-889D01*
X87801D01*
X87230Y-1651D02*X87611D01*
X89059Y-889D02*Y-2222D01*
X89249Y-2413D01*
X88868Y-1460D02*X89249D01*
X89630Y-889D02*Y-2413D01*
Y-1842D02*X89821Y-1651D01*
X90202D01*
X90392Y-1842D01*
Y-2413D01*
G54D115*X90849Y-1270D02*Y-1308D01*
G54D114*Y-1842D02*Y-2413D01*
X91421D02*X91992D01*
X92183Y-2222D01*
X91992Y-2032D02*X92183Y-2222D01*
X91421Y-2032D02*X91992D01*
X91230Y-1842D02*X91421Y-2032D01*
X91230Y-1842D02*X91421Y-1651D01*
X91992D01*
X92183Y-1842D01*
X91230Y-2222D02*X91421Y-2413D01*
X93516Y-1842D02*Y-2984D01*
X93326Y-1651D02*X93516Y-1842D01*
X93707Y-1651D01*
X94088D01*
X94278Y-1842D01*
Y-2222D01*
X94088Y-2413D02*X94278Y-2222D01*
X93707Y-2413D02*X94088D01*
X93516Y-2222D02*X93707Y-2413D01*
X95307Y-1651D02*X95498Y-1842D01*
X94926Y-1651D02*X95307D01*
X94736Y-1842D02*X94926Y-1651D01*
X94736Y-1842D02*Y-2222D01*
X94926Y-2413D01*
X95498Y-1651D02*Y-2222D01*
X95688Y-2413D01*
X94926D02*X95307D01*
X95498Y-2222D01*
X96336Y-889D02*Y-2222D01*
X96526Y-2413D01*
X96145Y-1460D02*X96526D01*
X96907Y-889D02*Y-2413D01*
Y-1842D02*X97098Y-1651D01*
X97479D01*
X97669Y-1842D01*
Y-2413D01*
X50990Y134239D02*Y132715D01*
X51486Y134239D02*X51752Y133972D01*
Y132982D01*
X51486Y132715D02*X51752Y132982D01*
X50800Y132715D02*X51486D01*
X50800Y134239D02*X51486D01*
X52781Y133477D02*X52972Y133286D01*
X52400Y133477D02*X52781D01*
X52210Y133286D02*X52400Y133477D01*
X52210Y133286D02*Y132906D01*
X52400Y132715D01*
X52972Y133477D02*Y132906D01*
X53162Y132715D01*
X52400D02*X52781D01*
X52972Y132906D01*
X53810Y134239D02*Y132906D01*
X54000Y132715D01*
X53619Y133668D02*X54000D01*
X54572Y132715D02*X55143D01*
X54381Y132906D02*X54572Y132715D01*
X54381Y133286D02*Y132906D01*
Y133286D02*X54572Y133477D01*
X54953D01*
X55143Y133286D01*
X54381Y133096D02*X55143D01*
Y133286D02*Y133096D01*
X55601Y133668D02*X55791D01*
X55601Y133286D02*X55791D01*
X57696Y134239D02*X57887Y134048D01*
X57125Y134239D02*X57696D01*
X56934Y134048D02*X57125Y134239D01*
X56934Y134048D02*Y133668D01*
X57125Y133477D01*
X57696D01*
X57887Y133286D01*
Y132906D01*
X57696Y132715D02*X57887Y132906D01*
X57125Y132715D02*X57696D01*
X56934Y132906D02*X57125Y132715D01*
X58915Y133477D02*X59106Y133286D01*
X58534Y133477D02*X58915D01*
X58344Y133286D02*X58534Y133477D01*
X58344Y133286D02*Y132906D01*
X58534Y132715D01*
X59106Y133477D02*Y132906D01*
X59296Y132715D01*
X58534D02*X58915D01*
X59106Y132906D01*
X59944Y134239D02*Y132906D01*
X60135Y132715D01*
X59754Y133668D02*X60135D01*
X61468Y134239D02*X61773D01*
Y132906D01*
X61582Y132715D02*X61773Y132906D01*
X61392Y132715D02*X61582D01*
X61201Y132906D02*X61392Y132715D01*
X61201Y133096D02*Y132906D01*
X62230Y133477D02*Y132906D01*
X62421Y132715D01*
X62802D01*
X62992Y132906D01*
Y133477D02*Y132906D01*
X63640Y133286D02*Y132715D01*
Y133286D02*X63830Y133477D01*
X64021D01*
X64211Y133286D01*
Y132715D01*
X63449Y133477D02*X63640Y133286D01*
X66040D02*X66802Y134239D01*
X66040Y133286D02*X66993D01*
X66802Y134239D02*Y132715D01*
X68136Y134048D02*X68326Y134239D01*
X68898D01*
X69088Y134048D01*
Y133668D01*
X68136Y132715D02*X69088Y133668D01*
X68136Y132715D02*X69088D01*
X69545Y133934D02*X69850Y134239D01*
Y132715D01*
X69545D02*X70117D01*
X70574Y133668D02*X70764D01*
X70574Y133286D02*X70764D01*
X71222Y132906D02*X71412Y132715D01*
X71222Y134048D02*Y132906D01*
Y134048D02*X71412Y134239D01*
X71793D01*
X71984Y134048D01*
Y132906D01*
X71793Y132715D02*X71984Y132906D01*
X71412Y132715D02*X71793D01*
X71222Y133096D02*X71984Y133858D01*
X72441Y133934D02*X72746Y134239D01*
Y132715D01*
X72441D02*X73012D01*
X73470Y133668D02*X73660D01*
X73470Y133286D02*X73660D01*
X74117Y132906D02*X74308Y132715D01*
X74117Y134048D02*Y132906D01*
Y134048D02*X74308Y134239D01*
X74689D01*
X74879Y134048D01*
Y132906D01*
X74689Y132715D02*X74879Y132906D01*
X74308Y132715D02*X74689D01*
X74117Y133096D02*X74879Y133858D01*
X75336Y134239D02*X76098D01*
X75336D02*Y133477D01*
X75527Y133668D01*
X75908D01*
X76098Y133477D01*
Y132906D01*
X75908Y132715D02*X76098Y132906D01*
X75527Y132715D02*X75908D01*
X75336Y132906D02*X75527Y132715D01*
X77241Y134048D02*X77432Y134239D01*
X78003D01*
X78194Y134048D01*
Y133668D01*
X77241Y132715D02*X78194Y133668D01*
X77241Y132715D02*X78194D01*
X78651Y132906D02*X78842Y132715D01*
X78651Y134048D02*Y132906D01*
Y134048D02*X78842Y134239D01*
X79223D01*
X79413Y134048D01*
Y132906D01*
X79223Y132715D02*X79413Y132906D01*
X78842Y132715D02*X79223D01*
X78651Y133096D02*X79413Y133858D01*
X79870Y133934D02*X80175Y134239D01*
Y132715D01*
X79870D02*X80442D01*
X81471Y134239D02*X81661Y134048D01*
X81090Y134239D02*X81471D01*
X80899Y134048D02*X81090Y134239D01*
X80899Y134048D02*Y132906D01*
X81090Y132715D01*
X81471Y133553D02*X81661Y133363D01*
X80899Y133553D02*X81471D01*
X81090Y132715D02*X81471D01*
X81661Y132906D01*
Y133363D02*Y132906D01*
X82804Y134239D02*Y132906D01*
X82995Y132715D01*
X83376D01*
X83566Y132906D01*
Y134239D02*Y132906D01*
X84023Y134239D02*X84785D01*
X84404D02*Y132715D01*
X85509D02*X86004D01*
X85242Y132982D02*X85509Y132715D01*
X85242Y133972D02*Y132982D01*
Y133972D02*X85509Y134239D01*
X86004D01*
X50800Y137668D02*Y136525D01*
Y137668D02*X51067Y138049D01*
X51486D01*
X51752Y137668D01*
Y136525D01*
X50800Y137287D02*X51752D01*
X52210D02*Y136716D01*
X52400Y136525D01*
X52781D01*
X52972Y136716D01*
Y137287D02*Y136716D01*
X53619Y138049D02*Y136716D01*
X53810Y136525D01*
X53429Y137478D02*X53810D01*
X54191Y138049D02*Y136525D01*
Y137096D02*X54381Y137287D01*
X54762D01*
X54953Y137096D01*
Y136525D01*
X55410Y137096D02*Y136716D01*
Y137096D02*X55601Y137287D01*
X55982D01*
X56172Y137096D01*
Y136716D01*
X55982Y136525D02*X56172Y136716D01*
X55601Y136525D02*X55982D01*
X55410Y136716D02*X55601Y136525D01*
X56820Y137096D02*Y136525D01*
Y137096D02*X57010Y137287D01*
X57391D01*
X56629D02*X56820Y137096D01*
X57849Y137478D02*X58039D01*
X57849Y137096D02*X58039D01*
X59373Y138049D02*Y136525D01*
X59868Y138049D02*X60135Y137782D01*
Y136792D01*
X59868Y136525D02*X60135Y136792D01*
X59182Y136525D02*X59868D01*
X59182Y138049D02*X59868D01*
X61163Y137287D02*X61354Y137096D01*
X60782Y137287D02*X61163D01*
X60592Y137096D02*X60782Y137287D01*
X60592Y137096D02*Y136716D01*
X60782Y136525D01*
X61354Y137287D02*Y136716D01*
X61544Y136525D01*
X60782D02*X61163D01*
X61354Y136716D01*
X62192Y137096D02*Y136525D01*
Y137096D02*X62382Y137287D01*
X62573D01*
X62763Y137096D01*
Y136525D01*
Y137096D02*X62954Y137287D01*
X63144D01*
X63335Y137096D01*
Y136525D01*
X62001Y137287D02*X62192Y137096D01*
G54D115*X63792Y137668D02*Y137630D01*
G54D114*Y137096D02*Y136525D01*
X64745Y137287D02*X64935Y137096D01*
X64364Y137287D02*X64745D01*
X64173Y137096D02*X64364Y137287D01*
X64173Y137096D02*Y136716D01*
X64364Y136525D01*
X64935Y137287D02*Y136716D01*
X65126Y136525D01*
X64364D02*X64745D01*
X64935Y136716D01*
X65773Y137096D02*Y136525D01*
Y137096D02*X65964Y137287D01*
X66154D01*
X66345Y137096D01*
Y136525D01*
X65583Y137287D02*X65773Y137096D01*
X67488Y138049D02*X68440D01*
X67488Y136525D02*X68440Y138049D01*
X67488Y136525D02*X68440D01*
X69469Y137287D02*X69660Y137096D01*
X69088Y137287D02*X69469D01*
X68898Y137096D02*X69088Y137287D01*
X68898Y137096D02*Y136716D01*
X69088Y136525D01*
X69660Y137287D02*Y136716D01*
X69850Y136525D01*
X69088D02*X69469D01*
X69660Y136716D01*
X70498Y137096D02*Y136525D01*
Y137096D02*X70688Y137287D01*
X71069D01*
X70307D02*X70498Y137096D01*
G54D117*G36*
X71526Y138430D02*Y136334D01*
X73431D01*
Y138430D01*
X71526D01*
G37*
G36*
X73812D02*Y136334D01*
X75717D01*
Y138430D01*
X73812D01*
G37*
G54D114*X76098Y138049D02*Y136525D01*
Y136716D02*X76289Y136525D01*
X76670D01*
X76860Y136716D01*
Y137096D02*Y136716D01*
X76670Y137287D02*X76860Y137096D01*
X76289Y137287D02*X76670D01*
X76098Y137096D02*X76289Y137287D01*
X77889D02*X78080Y137096D01*
X77508Y137287D02*X77889D01*
X77318Y137096D02*X77508Y137287D01*
X77318Y137096D02*Y136716D01*
X77508Y136525D01*
X78080Y137287D02*Y136716D01*
X78270Y136525D01*
X77508D02*X77889D01*
X78080Y136716D01*
X50800Y141859D02*X51562D01*
X51181D02*Y140335D01*
G54D115*X52019Y141478D02*Y141440D01*
G54D114*Y140906D02*Y140335D01*
X52591Y141859D02*Y140526D01*
X52781Y140335D01*
X52400Y141288D02*X52781D01*
X53162Y141859D02*Y140526D01*
X53353Y140335D01*
X53924D02*X54496D01*
X53734Y140526D02*X53924Y140335D01*
X53734Y140906D02*Y140526D01*
Y140906D02*X53924Y141097D01*
X54305D01*
X54496Y140906D01*
X53734Y140716D02*X54496D01*
Y140906D02*Y140716D01*
X54953Y141288D02*X55143D01*
X54953Y140906D02*X55143D01*
X56286Y140526D02*X56477Y140335D01*
X56286Y141668D02*X56477Y141859D01*
X56286Y141668D02*Y140526D01*
X56934Y141097D02*Y140526D01*
X57125Y140335D01*
X57506D01*
X57696Y140526D01*
Y141097D02*Y140526D01*
X58344Y140906D02*Y140335D01*
Y140906D02*X58534Y141097D01*
X58725D01*
X58915Y140906D01*
Y140335D01*
X58153Y141097D02*X58344Y140906D01*
X59373Y141859D02*Y140335D01*
Y140906D02*X59944Y140335D01*
X59373Y140906D02*X59754Y141288D01*
X60592Y140906D02*Y140335D01*
Y140906D02*X60782Y141097D01*
X60973D01*
X61163Y140906D01*
Y140335D01*
X60401Y141097D02*X60592Y140906D01*
X61620D02*Y140526D01*
Y140906D02*X61811Y141097D01*
X62192D01*
X62382Y140906D01*
Y140526D01*
X62192Y140335D02*X62382Y140526D01*
X61811Y140335D02*X62192D01*
X61620Y140526D02*X61811Y140335D01*
X62840Y141097D02*Y140526D01*
X63030Y140335D01*
X63221D01*
X63411Y140526D01*
Y141097D02*Y140526D01*
X63602Y140335D01*
X63792D01*
X63983Y140526D01*
Y141097D02*Y140526D01*
X64630Y140906D02*Y140335D01*
Y140906D02*X64821Y141097D01*
X65011D01*
X65202Y140906D01*
Y140335D01*
X64440Y141097D02*X64630Y140906D01*
X65659Y141859D02*X65850Y141668D01*
Y140526D01*
X65659Y140335D02*X65850Y140526D01*
X66993Y141097D02*X67755D01*
X68898Y141859D02*Y140335D01*
Y141859D02*X69660D01*
X68898Y141173D02*X69469D01*
X70688Y141097D02*X70879Y140906D01*
X70307Y141097D02*X70688D01*
X70117Y140906D02*X70307Y141097D01*
X70117Y140906D02*Y140526D01*
X70307Y140335D01*
X70879Y141097D02*Y140526D01*
X71069Y140335D01*
X70307D02*X70688D01*
X70879Y140526D01*
X71526Y141859D02*Y140335D01*
Y140526D02*X71717Y140335D01*
X72098D01*
X72288Y140526D01*
Y140906D02*Y140526D01*
X72098Y141097D02*X72288Y140906D01*
X71717Y141097D02*X72098D01*
X71526Y140906D02*X71717Y141097D01*
X72936Y140906D02*Y140335D01*
Y140906D02*X73127Y141097D01*
X73508D01*
X72746D02*X72936Y140906D01*
G54D115*X73965Y141478D02*Y141440D01*
G54D114*Y140906D02*Y140335D01*
X74536Y141097D02*X75108D01*
X74346Y140906D02*X74536Y141097D01*
X74346Y140906D02*Y140526D01*
X74536Y140335D01*
X75108D01*
X76137Y141097D02*X76327Y140906D01*
X75756Y141097D02*X76137D01*
X75565Y140906D02*X75756Y141097D01*
X75565Y140906D02*Y140526D01*
X75756Y140335D01*
X76327Y141097D02*Y140526D01*
X76518Y140335D01*
X75756D02*X76137D01*
X76327Y140526D01*
X77165Y141859D02*Y140526D01*
X77356Y140335D01*
X76975Y141288D02*X77356D01*
G54D115*X77737Y141478D02*Y141440D01*
G54D114*Y140906D02*Y140335D01*
X78118Y140906D02*Y140526D01*
Y140906D02*X78308Y141097D01*
X78689D01*
X78880Y140906D01*
Y140526D01*
X78689Y140335D02*X78880Y140526D01*
X78308Y140335D02*X78689D01*
X78118Y140526D02*X78308Y140335D01*
X79527Y140906D02*Y140335D01*
Y140906D02*X79718Y141097D01*
X79908D01*
X80099Y140906D01*
Y140335D01*
X79337Y141097D02*X79527Y140906D01*
X81432Y141859D02*Y140335D01*
X81928Y141859D02*X82194Y141592D01*
Y140602D01*
X81928Y140335D02*X82194Y140602D01*
X81242Y140335D02*X81928D01*
X81242Y141859D02*X81928D01*
X82842Y140906D02*Y140335D01*
Y140906D02*X83033Y141097D01*
X83414D01*
X82652D02*X82842Y140906D01*
X84442Y141097D02*X84633Y140906D01*
X84061Y141097D02*X84442D01*
X83871Y140906D02*X84061Y141097D01*
X83871Y140906D02*Y140526D01*
X84061Y140335D01*
X84633Y141097D02*Y140526D01*
X84823Y140335D01*
X84061D02*X84442D01*
X84633Y140526D01*
X85281Y141097D02*Y140526D01*
X85471Y140335D01*
X85662D01*
X85852Y140526D01*
Y141097D02*Y140526D01*
X86043Y140335D01*
X86233D01*
X86424Y140526D01*
Y141097D02*Y140526D01*
G54D115*X86881Y141478D02*Y141440D01*
G54D114*Y140906D02*Y140335D01*
X87452Y140906D02*Y140335D01*
Y140906D02*X87643Y141097D01*
X87833D01*
X88024Y140906D01*
Y140335D01*
X87262Y141097D02*X87452Y140906D01*
X89052Y141097D02*X89243Y140906D01*
X88671Y141097D02*X89052D01*
X88481Y140906D02*X88671Y141097D01*
X88481Y140906D02*Y140526D01*
X88671Y140335D01*
X89052D01*
X89243Y140526D01*
X88481Y139954D02*X88671Y139764D01*
X89052D01*
X89243Y139954D01*
Y141097D02*Y139954D01*
M02*
