G04 start of page 14 for group -4079 idx -4079 *
G04 Title: (unknown), topsilk *
G04 Creator: pcb-gtk 1.99z *
G04 CreationDate: Sat Jun  4 21:01:05 2016 UTC *
G04 For: khazakar *
G04 Format: Gerber/RS-274X *
G04 PCB-Dimensions (mm): 152.40 127.00 *
G04 PCB-Coordinate-Origin: lower left *
%MOMM*%
%FSLAX43Y43*%
%LNTOPSILK*%
%ADD112C,0.305*%
%ADD111C,0.200*%
%ADD110C,0.254*%
%ADD109C,0.137*%
%ADD108C,0.259*%
G54D108*X4708Y101464D02*X7248D01*
X4708Y109084D02*Y101464D01*
Y109084D02*X7248D01*
Y101464D01*
X5177Y101934D02*X6778D01*
X5177Y103534D02*Y101934D01*
Y103534D02*X6778D01*
Y101934D01*
G54D109*X6740Y105274D02*G75*G03X6740Y105274I-762J0D01*G01*
Y107814D02*G75*G03X6740Y107814I-762J0D01*G01*
G54D110*X20320Y104902D02*X24130D01*
Y115062D02*Y104902D01*
X13970Y115062D02*X24130D01*
X13970D02*Y104902D01*
X17780D01*
X20320D02*G75*G03X17780Y104902I-1270J0D01*G01*
X18385Y120981D02*Y117171D01*
X20925Y122251D02*G75*G03X17750Y119076I0J-3175D01*G01*
X24100Y119075D02*G75*G03X20925Y122251I-3175J0D01*G01*
Y115901D02*G75*G03X24100Y119076I0J3175D01*G01*
X17750Y119076D02*G75*G03X20925Y115901I3175J0D01*G01*
X9715Y119148D02*Y114068D01*
Y119148D02*X12255D01*
Y114068D01*
X9715D02*X12255D01*
X10985D02*Y112544D01*
Y120672D02*Y119148D01*
G54D111*X270Y125730D02*G75*G03X270Y125730I1000J0D01*G01*
G54D110*X23273Y97414D02*Y93604D01*
X20733Y92334D02*G75*G03X23908Y95509I0J3175D01*G01*
X17558Y95509D02*G75*G03X20733Y92334I3175J0D01*G01*
Y98684D02*G75*G03X17558Y95509I0J-3175D01*G01*
X23908Y95509D02*G75*G03X20733Y98684I-3175J0D01*G01*
X14099Y101719D02*Y96639D01*
X11559D02*X14099D01*
X11559Y101719D02*Y96639D01*
Y101719D02*X14099D01*
X12829Y103243D02*Y101719D01*
Y96639D02*Y95115D01*
G54D108*X26094Y100961D02*Y98421D01*
Y100961D02*X33714D01*
Y98421D01*
X26094D02*X33714D01*
X26564Y100491D02*Y98891D01*
Y100491D02*X28164D01*
Y98891D01*
X26564D02*X28164D01*
G54D109*X29904Y98929D02*G75*G03X29904Y98929I0J762D01*G01*
X32444D02*G75*G03X32444Y98929I0J762D01*G01*
G54D111*X56150Y87376D02*G75*G03X56150Y87376I1000J0D01*G01*
X270D02*G75*G03X270Y87376I1000J0D01*G01*
G54D112*X46236Y110072D02*Y107532D01*
X48776Y110072D02*Y107532D01*
X47506Y106262D02*G75*G03X48776Y107532I0J1270D01*G01*
X47506Y111342D02*G75*G03X46236Y110072I0J-1270D01*G01*
Y107532D02*G75*G03X47506Y106262I1270J0D01*G01*
X48776Y110097D02*G75*G03X47506Y111367I-1270J0D01*G01*
G54D110*X45484Y121659D02*Y116579D01*
Y121659D02*X48024D01*
Y116579D01*
X45484D02*X48024D01*
X46754D02*Y115055D01*
Y123183D02*Y121659D01*
X27670Y108002D02*X31480D01*
X26400Y110542D02*G75*G03X29575Y107367I3175J0D01*G01*
X29575Y113717D02*G75*G03X26400Y110542I0J-3175D01*G01*
X32750D02*G75*G03X29575Y113717I-3175J0D01*G01*
X29575Y107367D02*G75*G03X32750Y110542I0J3175D01*G01*
G54D108*X39345Y122110D02*X41885D01*
Y117030D01*
X39345D02*X41885D01*
X39345Y122110D02*Y117030D01*
X39815Y121640D02*X41415D01*
Y120040D01*
X39815D02*X41415D01*
X39815Y121640D02*Y120040D01*
G54D109*X39853Y118300D02*G75*G03X39853Y118300I762J0D01*G01*
G54D110*X35789Y114404D02*X43409D01*
X45949Y109324D02*G75*G03X39599Y115674I-6350J0D01*G01*
X39598Y102974D02*G75*G03X45949Y109324I0J6350D01*G01*
X33249Y109324D02*G75*G03X39599Y102974I6350J0D01*G01*
X39598Y115674D02*G75*G03X33249Y109324I0J-6350D01*G01*
G54D111*X56150Y125730D02*G75*G03X56150Y125730I1000J0D01*G01*
G54D110*X46696Y105256D02*X54316D01*
X56856Y100176D02*G75*G03X50506Y106526I-6350J0D01*G01*
X50506Y93826D02*G75*G03X56856Y100177I0J6350D01*G01*
X44156Y100176D02*G75*G03X50506Y93826I6350J0D01*G01*
X50506Y106526D02*G75*G03X44156Y100177I0J-6350D01*G01*
G54D112*X41946Y95525D02*Y92985D01*
X39406Y95525D02*Y92985D01*
X40676Y96795D02*G75*G03X39406Y95525I0J-1270D01*G01*
X40676Y91715D02*G75*G03X41946Y92985I0J1270D01*G01*
Y95525D02*G75*G03X40676Y96795I-1270J0D01*G01*
X39406Y92960D02*G75*G03X40676Y91690I1270J0D01*G01*
G54D110*X36161Y88471D02*X41241D01*
X36161Y91011D02*Y88471D01*
Y91011D02*X41241D01*
Y88471D01*
Y89741D02*X42765D01*
X34637D02*X36161D01*
X19198Y122251D02*X19528D01*
X19020Y122428D02*X19198Y122251D01*
X19020Y123089D02*Y122428D01*
Y123089D02*X19198Y123267D01*
X19528D01*
X19833Y123140D02*X19960Y123267D01*
X20214D01*
X20341Y123140D01*
X20214Y122251D02*X20341Y122378D01*
X19960Y122251D02*X20214D01*
X19833Y122378D02*X19960Y122251D01*
Y122809D02*X20214D01*
X20341Y123140D02*Y122936D01*
Y122682D02*Y122378D01*
Y122682D02*X20214Y122809D01*
X20341Y122936D02*X20214Y122809D01*
X10604Y115211D02*Y114703D01*
Y115211D02*X10731Y115338D01*
X10985D01*
X11112Y115211D02*X10985Y115338D01*
X11112Y115211D02*Y114830D01*
X10604D02*X11620D01*
X11112Y115033D02*X11620Y115338D01*
X10731Y115643D02*X10604Y115770D01*
Y116151D02*Y115770D01*
Y116151D02*X10731Y116278D01*
X10985D01*
X11620Y115643D02*X10985Y116278D01*
X11620D02*Y115643D01*
X3048Y125984D02*Y124968D01*
Y125349D02*X3175Y125476D01*
X3429D01*
X3556Y125349D01*
Y124968D01*
X3861Y125349D02*Y125095D01*
Y125349D02*X3988Y125476D01*
X4242D01*
X4369Y125349D01*
Y125095D01*
X4242Y124968D02*X4369Y125095D01*
X3988Y124968D02*X4242D01*
X3861Y125095D02*X3988Y124968D01*
X4674Y125984D02*Y125095D01*
X4801Y124968D01*
X5182D02*X5563D01*
X5055Y125095D02*X5182Y124968D01*
X5055Y125349D02*Y125095D01*
Y125349D02*X5182Y125476D01*
X5436D01*
X5563Y125349D01*
X5055Y125222D02*X5563D01*
Y125349D02*Y125222D01*
X5867Y124968D02*X6375D01*
X6680Y125857D02*X6807Y125984D01*
X7188D01*
X7315Y125857D01*
Y125603D01*
X6680Y124968D02*X7315Y125603D01*
X6680Y124968D02*X7315D01*
X7747Y125349D02*Y124968D01*
Y125349D02*X7874Y125476D01*
X8001D01*
X8128Y125349D01*
Y124968D01*
Y125349D02*X8255Y125476D01*
X8382D01*
X8509Y125349D01*
Y124968D01*
X7620Y125476D02*X7747Y125349D01*
X8941D02*Y124968D01*
Y125349D02*X9068Y125476D01*
X9195D01*
X9322Y125349D01*
Y124968D01*
Y125349D02*X9449Y125476D01*
X9576D01*
X9703Y125349D01*
Y124968D01*
X8814Y125476D02*X8941Y125349D01*
X22130Y92334D02*X22460D01*
X22638Y92156D02*X22460Y92334D01*
X22638Y92156D02*Y91496D01*
X22460Y91318D01*
X22130D02*X22460D01*
X21825Y91521D02*X21622Y91318D01*
Y92334D02*Y91318D01*
X21444Y92334D02*X21825D01*
X13210Y99560D02*Y99052D01*
X13083Y98925D01*
X12829D02*X13083D01*
X12702Y99052D02*X12829Y98925D01*
X12702Y99433D02*Y99052D01*
X12194Y99433D02*X13210D01*
X12702Y99229D02*X12194Y98925D01*
X13007Y98620D02*X13210Y98417D01*
X12194D02*X13210D01*
X12194Y98620D02*Y98239D01*
X8949Y104004D02*Y103673D01*
X8772Y103496D02*X8949Y103673D01*
X8111Y103496D02*X8772D01*
X8111D02*X7933Y103673D01*
Y104004D02*Y103673D01*
Y104308D02*X8949D01*
X7933D02*X8949Y104943D01*
X7933D02*X8949D01*
X8137Y105248D02*X7933Y105451D01*
X8949D01*
Y105629D02*Y105248D01*
X19558Y104267D02*Y103378D01*
Y104267D02*X19431Y104394D01*
X19177D02*X19431D01*
X19177D02*X19050Y104267D01*
Y103378D01*
X18745Y103581D02*X18542Y103378D01*
Y104394D02*Y103378D01*
X18364Y104394D02*X18745D01*
X50554Y108548D02*Y108217D01*
X50376Y108040D02*X50554Y108217D01*
X49716Y108040D02*X50376D01*
X49716D02*X49538Y108217D01*
Y108548D02*Y108217D01*
X50554Y108979D02*X49538Y109487D01*
Y108852D01*
X46442Y101268D02*Y100938D01*
X46620Y101446D02*X46442Y101268D01*
X46620Y101446D02*X47280D01*
X47458Y101268D01*
Y100938D01*
X46823Y100633D02*X47458Y100125D01*
X46823Y100633D02*Y99998D01*
X46442Y100125D02*X47458D01*
X46373Y117722D02*Y117214D01*
Y117722D02*X46500Y117849D01*
X46754D01*
X46881Y117722D02*X46754Y117849D01*
X46881Y117722D02*Y117341D01*
X46373D02*X47389D01*
X46881Y117544D02*X47389Y117849D01*
X47008Y118154D02*X46373Y118662D01*
X47008Y118789D02*Y118154D01*
X46373Y118662D02*X47389D01*
X43155Y117538D02*Y117208D01*
X42977Y117030D02*X43155Y117208D01*
X42317Y117030D02*X42977D01*
X42317D02*X42139Y117208D01*
Y117538D02*Y117208D01*
X42266Y117843D02*X43028D01*
X42266D02*X42139Y117970D01*
Y118224D02*Y117970D01*
Y118224D02*X42266Y118351D01*
X43028D01*
X43155Y118224D02*X43028Y118351D01*
X43155Y118224D02*Y117970D01*
X43028Y117843D02*X43155Y117970D01*
X42139Y118656D02*X43155D01*
X42139D02*X43155Y119291D01*
X42139D02*X43155D01*
X42342Y119596D02*X42139Y119799D01*
X43155D01*
Y119977D02*Y119596D01*
X55118Y126111D02*X55245Y126238D01*
X55499D01*
X55626Y126111D01*
X55499Y125222D02*X55626Y125349D01*
X55245Y125222D02*X55499D01*
X55118Y125349D02*X55245Y125222D01*
Y125781D02*X55499D01*
X55626Y126111D02*Y125908D01*
Y125654D02*Y125349D01*
Y125654D02*X55499Y125781D01*
X55626Y125908D02*X55499Y125781D01*
X28049Y96719D02*X28380D01*
X27872Y96897D02*X28049Y96719D01*
X27872Y97558D02*Y96897D01*
Y97558D02*X28049Y97735D01*
X28380D01*
X28684D02*Y96719D01*
Y97735D02*X29319Y96719D01*
Y97735D02*Y96719D01*
X29624Y97608D02*X29751Y97735D01*
X30132D01*
X30259Y97608D01*
Y97354D01*
X29624Y96719D02*X30259Y97354D01*
X29624Y96719D02*X30259D01*
X37628Y93823D02*Y93493D01*
X37805Y94001D02*X37628Y93823D01*
X37805Y94001D02*X38466D01*
X38644Y93823D01*
Y93493D01*
Y92807D02*X38517Y92680D01*
X38644Y93061D02*Y92807D01*
X38517Y93188D02*X38644Y93061D01*
X37755Y93188D02*X38517D01*
X37755D02*X37628Y93061D01*
X38186Y92807D02*X38059Y92680D01*
X38186Y93188D02*Y92807D01*
X37628Y93061D02*Y92807D01*
X37755Y92680D01*
X38059D01*
X40098Y89360D02*X40606D01*
X40098D02*X39971Y89487D01*
Y89741D02*Y89487D01*
X40098Y89868D02*X39971Y89741D01*
X40098Y89868D02*X40479D01*
Y90376D02*Y89360D01*
X40275Y89868D02*X39971Y90376D01*
X39666Y89487D02*X39539Y89360D01*
X39285D02*X39539D01*
X39285D02*X39158Y89487D01*
X39285Y90376D02*X39158Y90249D01*
X39285Y90376D02*X39539D01*
X39666Y90249D02*X39539Y90376D01*
X39285Y89817D02*X39539D01*
X39158Y89690D02*Y89487D01*
Y90249D02*Y89944D01*
X39285Y89817D01*
X39158Y89690D02*X39285Y89817D01*
X54610Y87757D02*X54737Y87884D01*
X55118D01*
X55245Y87757D01*
Y87503D01*
X54610Y86868D02*X55245Y87503D01*
X54610Y86868D02*X55245D01*
X2794Y88900D02*Y87884D01*
Y88265D02*X2921Y88392D01*
X3175D01*
X3302Y88265D01*
Y87884D01*
X3607Y88265D02*Y88011D01*
Y88265D02*X3734Y88392D01*
X3988D01*
X4115Y88265D01*
Y88011D01*
X3988Y87884D02*X4115Y88011D01*
X3734Y87884D02*X3988D01*
X3607Y88011D02*X3734Y87884D01*
X4420Y88900D02*Y88011D01*
X4547Y87884D01*
X4928D02*X5309D01*
X4801Y88011D02*X4928Y87884D01*
X4801Y88265D02*Y88011D01*
Y88265D02*X4928Y88392D01*
X5182D01*
X5309Y88265D01*
X4801Y88138D02*X5309D01*
Y88265D02*Y88138D01*
X5613Y87884D02*X6121D01*
X6426Y88773D02*X6553Y88900D01*
X6934D01*
X7061Y88773D01*
Y88519D01*
X6426Y87884D02*X7061Y88519D01*
X6426Y87884D02*X7061D01*
X7493Y88265D02*Y87884D01*
Y88265D02*X7620Y88392D01*
X7747D01*
X7874Y88265D01*
Y87884D01*
Y88265D02*X8001Y88392D01*
X8128D01*
X8255Y88265D01*
Y87884D01*
X7366Y88392D02*X7493Y88265D01*
X8687D02*Y87884D01*
Y88265D02*X8814Y88392D01*
X8941D01*
X9068Y88265D01*
Y87884D01*
Y88265D02*X9195Y88392D01*
X9322D01*
X9449Y88265D01*
Y87884D01*
X8560Y88392D02*X8687Y88265D01*
X9754Y88697D02*X9957Y88900D01*
Y87884D01*
X9754D02*X10135D01*
X26400Y109145D02*Y108815D01*
X26222Y108637D02*X26400Y108815D01*
X25562Y108637D02*X26222D01*
X25562D02*X25384Y108815D01*
Y109145D02*Y108815D01*
X25511Y109450D02*X25384Y109577D01*
Y109958D02*Y109577D01*
Y109958D02*X25511Y110085D01*
X25765D01*
X26400Y109450D02*X25765Y110085D01*
X26400D02*Y109450D01*
X34519Y110416D02*Y110086D01*
X34697Y110594D02*X34519Y110416D01*
X34697Y110594D02*X35357D01*
X35535Y110416D01*
Y110086D01*
Y109781D02*Y109273D01*
X35027Y109781D02*X35535D01*
X35027D02*X35154Y109654D01*
Y109400D01*
X35027Y109273D01*
X34646D02*X35027D01*
X34519Y109400D02*X34646Y109273D01*
X34519Y109654D02*Y109400D01*
X34646Y109781D02*X34519Y109654D01*
M02*
